PathFileType	4	(X/Y/Z)	\\Move.snu.ac.kr\motion\Animal\091204_091205_Bird\091205_bird\Project 2\Capture day 2\Session 1\pigeon_007_new_after_delete_unlabel.trc
DataRate	CameraRate	NumFrames	NumMarkers	Units	OrigDataRate	OrigDataStartFrame	OrigNumFrames
240.0	240.0	20	14	mm	240.0	42	5319
Frame#	Time	14MarkersBird:Head			14MarkersBird:C_back			14MarkersBird:Spine			14MarkersBird:L-shoulder			14MarkersBird:L-elbow			14MarkersBird:L-wrist			14MarkersBird:L-hand			14MarkersBird:R-shoulder			14MarkersBird:R-elbow			14MarkersBird:R-Wrist			14MarkersBird:R-hand			14MarkersBird:C_Tail			14MarkersBird:L-Tale			14MarkersBird:R-Tale			
		X1	Y1	Z1	X2	Y2	Z2	X3	Y3	Z3	X4	Y4	Z4	X5	Y5	Z5	X6	Y6	Z6	X7	Y7	Z7	X8	Y8	Z8	X9	Y9	Z9	X10	Y10	Z10	X11	Y11	Z11	X12	Y12	Z12	X13	Y13	Z13	X14	Y14	Z14	

2596	10.813	-2051.16846	999.22351	-1640.85046	-2107.44092	984.64404	-1663.06482	-2152.30005	966.85168	-1676.47253	-2070.32617	984.02820	-1674.03027	-2091.09204	1011.96869	-1665.24182	-2090.27026	1044.99805	-1680.62012	-2110.56763	1064.65002	-1676.82214	-2084.74341	984.25128	-1636.73181	-2102.05933	1003.97559	-1656.69556	-2098.47876	1040.14172	-1629.30225	-2124.06055	1070.09009	-1631.19922	-2220.54639	874.80133	-1739.60168	-2147.28101	930.06879	-1780.91418	-2215.86816	884.80817	-1617.54614	
2597	10.817	-2046.37805	1000.47852	-1638.61108	-2102.27515	984.67053	-1661.95764	-2146.98193	967.08789	-1675.17920	-2065.36450	985.08112	-1672.60315	-2086.79395	1011.50690	-1667.15002	-2083.43848	1045.09729	-1685.11499	-2100.81714	1066.99133	-1680.41187	-2079.44702	984.62933	-1635.65955	-2096.24170	1005.90308	-1651.02734	-2093.34668	1039.76563	-1621.67725	-2114.17261	1074.13281	-1623.39893	-2216.44116	875.75909	-1738.90417	-2141.16553	932.51373	-1780.01965	-2212.21631	884.50385	-1618.85840	
2598	10.821	-2041.51062	1001.80792	-1636.48792	-2097.00049	984.74414	-1660.82031	-2141.68872	967.43097	-1673.90271	-2060.34424	986.07025	-1671.10852	-2084.28052	1011.13092	-1669.83704	-2075.96777	1043.19727	-1692.12244	-2090.18604	1067.52710	-1690.81384	-2073.90454	985.08551	-1634.52136	-2091.07129	1006.82550	-1644.55713	-2089.30249	1036.92200	-1611.75439	-2106.38135	1073.11938	-1608.33813	-2211.92310	876.60114	-1737.62231	-2134.26953	935.34033	-1778.84985	-2207.90137	884.66943	-1619.34424	
2599	10.825	-2036.51782	1003.07709	-1634.67725	-2091.58105	984.89227	-1659.63098	-2136.40942	967.92468	-1672.65845	-2055.21460	986.84833	-1669.57397	-2080.24927	1009.82074	-1674.82275	-2067.40112	1038.96729	-1700.50732	-2078.40649	1064.74438	-1705.38208	-2068.13721	985.61328	-1633.32300	-2087.37646	1007.45013	-1637.67932	-2085.19409	1031.68616	-1601.04541	-2099.50391	1066.87549	-1589.71057	-2206.93921	877.65710	-1736.31189	-2126.88867	937.87689	-1777.47754	-2203.07080	885.60992	-1618.68811	
2600	10.829	-2031.41992	1004.23297	-1633.27917	-2085.98096	985.14227	-1658.36804	-2131.13330	968.61267	-1671.46167	-2049.85425	987.35834	-1668.12769	-2072.97974	1008.40411	-1678.60156	-2057.19458	1032.29016	-1708.96973	-2064.75122	1057.51282	-1720.77356	-2062.16650	986.20581	-1632.06995	-2083.57788	1004.42303	-1629.38879	-2079.64746	1024.42859	-1590.63721	-2091.44116	1055.97266	-1570.84180	-2201.68506	879.25085	-1735.32825	-2119.48169	939.27008	-1775.94385	-2198.03955	887.63959	-1616.84973	
2601	10.833	-2026.24207	1005.37659	-1632.15979	-2080.16431	985.52155	-1657.00964	-2125.84961	969.53882	-1670.32764	-2044.16699	987.59479	-1666.89563	-2066.25122	1006.35199	-1681.19312	-2045.11670	1023.22021	-1716.14099	-2048.77393	1045.89502	-1734.07666	-2056.01294	986.85645	-1630.76807	-2079.41895	1001.57782	-1622.59143	-2071.71240	1015.49963	-1581.33972	-2080.71655	1041.30652	-1554.05139	-2196.33496	881.41071	-1734.61658	-2112.49487	938.89789	-1774.19556	-2193.16260	891.02515	-1614.04797	
2602	10.837	-2020.92273	1006.57831	-1631.13623	-2074.09497	986.05737	-1655.53406	-2120.54736	970.74683	-1669.27161	-2038.11780	987.56458	-1665.94324	-2056.91162	1003.71021	-1686.35315	-2031.54712	1011.99707	-1720.76807	-2030.71375	1030.50989	-1743.23145	-2049.69775	987.55847	-1629.42285	-2071.95142	998.62079	-1615.72058	-2061.35742	1005.03778	-1573.93188	-2066.92749	1023.70624	-1540.87463	-2190.94946	883.75763	-1733.71033	-2106.28687	936.66809	-1772.10596	-2188.72363	895.86945	-1610.66907	
2603	10.842	-2015.37317	1007.79919	-1630.11902	-2067.73730	986.77716	-1653.91943	-2115.21582	972.28040	-1668.30896	-2031.73877	987.33221	-1665.24756	-2046.06140	999.73907	-1690.47644	-2017.36304	999.27411	-1721.83093	-2011.42053	1012.16278	-1746.76624	-2043.24231	988.30518	-1628.03992	-2064.48633	995.17371	-1609.37903	-2049.22729	993.33215	-1569.32007	-2050.46094	1003.99927	-1532.61609	-2185.56128	885.68878	-1731.87207	-2101.08276	932.97424	-1769.51819	-2184.74487	901.89282	-1607.09692	
2604	10.846	-2009.53491	1008.94141	-1629.12915	-2061.15259	987.63293	-1652.20422	-2109.84448	974.18329	-1667.45483	-2025.10767	987.06793	-1664.69214	-2037.00671	993.48535	-1691.76831	-2003.61938	986.29285	-1718.71729	-1992.39160	992.15845	-1743.67749	-2036.66736	989.08984	-1626.62512	-2055.91382	991.24506	-1604.12634	-2036.22510	981.19611	-1568.28503	-2032.31702	983.40503	-1530.42419	-2180.37964	886.83832	-1728.47620	-2096.93799	928.48529	-1766.36304	-2180.96606	908.43030	-1603.63281	
2605	10.850	-2003.38794	1009.92639	-1628.22156	-2055.00317	989.37415	-1651.53125	-2104.42188	976.49933	-1666.72449	-2018.32288	987.02386	-1664.14294	-2027.96570	988.31171	-1692.64551	-1991.35010	974.65582	-1711.52576	-1975.47510	972.68414	-1733.71948	-2029.99402	989.90582	-1625.18384	-2046.88550	987.15302	-1600.41541	-2023.31787	969.93176	-1571.08325	-2013.84216	963.71680	-1534.84497	-2175.66357	887.24573	-1723.22400	-2093.78052	923.97491	-1762.78687	-2176.97412	914.66125	-1600.46521	
2606	10.854	-1996.89709	1010.68628	-1627.39832	-2049.43579	992.17432	-1651.69836	-2098.93774	979.27222	-1666.13330	-2011.51086	987.39441	-1663.49255	-2019.82935	983.58832	-1692.02319	-1981.21655	966.00409	-1701.31335	-1962.22778	956.62225	-1718.13159	-2023.24353	990.74640	-1623.72192	-2038.27283	983.42529	-1598.36145	-2011.17163	961.22943	-1577.06824	-1996.37219	947.21130	-1545.25598	-2171.46191	887.24487	-1716.21875	-2091.31494	920.01617	-1759.03784	-2172.37671	919.94794	-1597.62439	
2607	10.858	-1990.05957	1011.22028	-1626.66040	-2043.54541	994.45587	-1651.34705	-2093.40918	982.43909	-1665.65857	-2004.79248	988.21069	-1662.70044	-2012.94067	979.82690	-1690.37646	-1973.38794	961.56610	-1690.07288	-1953.15356	946.53790	-1699.72668	-2016.43677	991.60480	-1622.24487	-2030.77942	980.55261	-1597.60168	-2000.25598	956.64691	-1584.64880	-1980.94507	936.16699	-1559.59558	-2167.63940	887.32959	-1708.02942	-2089.10181	916.85950	-1755.32227	-2166.98193	924.16772	-1595.00366	
2608	10.863	-1982.89795	1011.56152	-1625.98987	-2037.40027	996.49182	-1650.66748	-2087.02441	983.03223	-1663.58179	-1998.20020	989.35443	-1661.77637	-2007.48621	977.41449	-1688.44080	-1967.55554	961.70862	-1680.29370	-1947.61877	943.56567	-1682.19690	-2009.59485	992.47443	-1620.75842	-2024.74170	978.98639	-1597.49219	-1991.06799	956.91968	-1591.67578	-1968.10071	932.10413	-1574.60437	-2163.94336	887.91840	-1699.49280	-2086.81177	914.56146	-1751.79700	-2160.82764	927.64050	-1592.41748	
2609	10.867	-1975.43933	1011.71057	-1625.31396	-2030.81189	998.07428	-1649.48474	-2080.15063	984.08331	-1662.10547	-1991.67529	990.61438	-1660.74634	-2003.47156	976.71277	-1686.93152	-1963.15771	965.75122	-1674.09277	-1944.30151	946.94165	-1668.96399	-2002.73901	993.34851	-1619.26831	-2020.16077	979.14032	-1597.36060	-1983.98718	961.63953	-1596.17932	-1958.01990	934.96094	-1586.60181	-2159.99731	889.12457	-1691.39941	-2084.24365	913.01385	-1748.48230	-2154.03076	930.76233	-1589.66321	
2610	10.871	-1967.74146	1011.67151	-1624.55603	-2023.71423	999.13379	-1647.82129	-2073.22559	985.19977	-1660.53857	-1985.11829	991.75671	-1659.64868	-2000.64575	978.05981	-1686.12830	-1959.60181	972.35382	-1672.37598	-1941.71509	954.39642	-1662.32837	-1995.89001	994.22034	-1617.77991	-2016.89148	981.31091	-1596.87402	-1978.98804	969.56970	-1597.13672	-1950.76880	942.87549	-1592.64417	-2155.46484	890.79321	-1684.44080	-2081.18457	911.98956	-1745.26770	-2146.61816	933.71576	-1586.55237	
2611	10.875	-1959.93066	1011.50696	-1623.69312	-2016.15430	999.70020	-1645.82886	-2065.98975	986.25006	-1658.88586	-1978.44397	992.60492	-1658.50989	-1998.68518	979.51520	-1686.25537	-1956.47119	980.30084	-1674.50391	-1938.81665	963.24646	-1662.92749	-1989.06934	995.08325	-1616.29919	-2014.63110	985.55090	-1596.41113	-1975.59766	979.34369	-1594.81384	-1946.44128	953.22858	-1591.58691	-2150.14771	892.56158	-1679.12048	-2077.37427	911.32336	-1742.11401	-2138.52783	936.46838	-1582.97339	
2612	10.879	-1952.14648	1011.29901	-1622.72009	-2008.27039	999.84821	-1643.70667	-2058.52808	987.11981	-1657.07935	-1971.58643	993.09296	-1657.31567	-1996.93311	985.78577	-1686.39551	-1953.64209	989.08923	-1678.60681	-1935.71033	971.76501	-1669.69214	-1982.29761	995.93048	-1614.83154	-2012.66138	991.52271	-1597.01819	-1973.12451	990.06476	-1590.62231	-1945.21399	964.12207	-1584.39111	-2143.93945	893.97607	-1675.57117	-2072.53418	910.96936	-1739.16211	-2129.73169	938.85107	-1578.92322	
2613	10.883	-1944.52380	1011.14215	-1621.66553	-2000.37219	1000.15948	-1641.79785	-2050.95093	987.69946	-1655.13428	-1964.51440	993.27240	-1656.02075	-1994.50317	993.53485	-1683.90198	-1951.24731	998.67993	-1682.39001	-1933.92346	979.85187	-1680.16211	-1975.59631	996.75543	-1613.38281	-2009.79138	998.33893	-1599.67212	-1971.04138	1001.21112	-1586.60303	-1947.34717	975.21149	-1573.83069	-2136.83496	894.70245	-1673.51099	-2066.50269	910.99292	-1736.67395	-2120.38452	940.70215	-1574.56763	
2614	10.887	-1937.12622	1011.09766	-1620.55261	-1991.87598	999.02722	-1639.27478	-2043.34399	987.99023	-1653.17261	-1957.28845	993.24133	-1654.57825	-1991.05579	1002.33685	-1680.12878	-1949.40295	1008.79608	-1683.92981	-1935.35876	988.69922	-1690.91943	-1968.98621	997.55127	-1611.95850	-2007.80261	1006.60162	-1602.79053	-1968.89905	1012.24451	-1584.62988	-1952.60193	987.55286	-1563.66235	-2128.98071	894.67896	-1672.40759	-2059.28979	911.47137	-1734.84521	-2110.85742	942.00183	-1570.25867	
2615	10.892	-1929.93848	1011.20740	-1619.40710	-1983.80066	998.11646	-1636.87366	-2035.66272	988.24207	-1651.10876	-1950.06677	993.05389	-1652.97693	-1986.06348	1008.52380	-1670.21289	-1947.90930	1018.70721	-1682.21973	-1940.20654	999.74384	-1698.41382	-1962.48853	998.31140	-1610.56433	-1999.46826	1011.79034	-1610.92627	-1966.08411	1022.45624	-1585.65271	-1959.80127	1002.34778	-1557.36279	-2120.69507	894.09869	-1671.72949	-2051.07666	912.35419	-1733.64685	-2101.64697	942.84808	-1566.41687	
